<?xml version="1.0" standalone="no"?>
<!DOCTYPE svg PUBLIC "-//W3C//DTD SVG 20010904//EN"
 "http://www.w3.org/TR/2001/REC-SVG-20010904/DTD/svg10.dtd">
<svg version="1.0" xmlns="http://www.w3.org/2000/svg"
 width="1952.000000pt" height="2176.000000pt" viewBox="0 0 1952.000000 2176.000000"
 preserveAspectRatio="xMidYMid meet">

<g transform="translate(0.000000,2176.000000) scale(0.100000,-0.100000)"
fill="#000000" stroke="none">
<path d="M7450 17859 c-69 -5 -159 -13 -200 -19 -41 -5 -115 -14 -165 -20 -81
-10 -242 -39 -335 -60 -19 -4 -57 -13 -85 -19 -155 -33 -513 -142 -660 -200
-120 -48 -305 -129 -368 -161 -22 -11 -42 -20 -47 -20 -4 0 -54 -26 -111 -58
-57 -32 -138 -77 -180 -100 -385 -206 -819 -538 -1154 -882 -269 -277 -425
-471 -648 -810 -123 -187 -166 -262 -281 -490 -64 -126 -89 -179 -151 -325
-80 -186 -204 -559 -254 -765 -50 -202 -68 -289 -91 -440 -6 -41 -15 -100 -20
-130 -58 -356 -67 -901 -20 -1280 23 -186 31 -248 40 -295 5 -27 14 -79 20
-115 19 -108 88 -402 110 -470 4 -14 18 -59 30 -100 12 -41 26 -84 30 -95 5
-11 21 -58 36 -105 24 -77 105 -284 156 -400 38 -88 216 -436 273 -535 73
-126 256 -397 348 -515 335 -428 672 -761 1067 -1053 85 -64 375 -257 384
-257 2 0 33 -17 67 -38 135 -82 436 -239 521 -273 29 -11 69 -27 88 -36 139
-60 412 -158 535 -191 58 -15 106 -28 230 -62 162 -45 489 -98 800 -130 265
-27 852 -12 1110 29 33 6 87 14 120 20 33 5 80 12 105 16 100 14 391 82 545
126 147 43 450 153 560 204 28 13 82 37 120 53 79 34 294 144 370 188 28 16
64 36 80 44 26 12 53 29 156 95 89 57 179 119 254 175 135 100 147 104 191 61
235 -228 774 -783 774 -797 0 -11 -28 -43 -64 -74 -61 -53 -82 -79 -129 -158
-19 -31 -22 -52 -21 -132 0 -86 3 -100 29 -145 19 -33 201 -221 530 -548 275
-274 964 -960 1530 -1525 567 -565 1059 -1054 1095 -1087 164 -151 247 -195
545 -285 32 -9 182 -24 250 -24 242 0 479 67 671 190 75 47 89 59 190 159 174
173 273 354 335 615 21 87 18 396 -4 490 -49 207 -90 302 -190 448 -73 108 21
12 -1883 1912 -1273 1269 -1334 1329 -1390 1350 -47 18 -73 21 -131 18 -96 -6
-168 -42 -257 -129 l-70 -68 -27 23 c-70 59 -819 812 -819 824 0 7 17 36 38
65 21 29 51 72 67 97 15 25 31 47 35 50 16 12 149 223 205 324 91 167 176 334
213 416 102 231 131 306 221 579 74 222 120 395 156 591 9 47 20 108 25 135
27 149 40 240 62 455 17 165 17 739 0 880 -33 275 -46 367 -63 455 -44 235
-85 424 -106 495 -13 47 -28 99 -33 115 -33 127 -186 545 -245 670 -128 273
-183 376 -307 585 -73 123 -240 376 -280 425 -9 11 -69 85 -134 165 -164 203
-240 285 -389 424 -167 156 -251 227 -415 357 -36 28 -75 60 -88 70 -32 27
-377 261 -438 296 -412 243 -870 443 -1254 550 -30 8 -68 18 -85 23 -256 71
-521 119 -850 152 -128 12 -727 18 -875 7z m730 -1059 c226 -21 453 -59 645
-106 116 -29 455 -139 550 -179 166 -70 329 -149 428 -207 26 -15 50 -28 53
-28 2 0 53 -30 112 -66 551 -340 971 -760 1338 -1339 155 -245 278 -493 377
-760 156 -423 212 -666 252 -1098 17 -193 20 -579 4 -729 -31 -303 -86 -619
-129 -738 -5 -14 -19 -59 -31 -100 -113 -385 -281 -750 -502 -1095 -219 -340
-559 -721 -857 -961 -224 -181 -612 -428 -815 -519 -27 -12 -79 -36 -115 -53
-84 -39 -152 -66 -270 -107 -52 -19 -122 -43 -155 -55 -33 -12 -85 -29 -115
-37 -412 -110 -771 -163 -1085 -163 -131 1 -424 21 -545 39 -185 26 -470 86
-585 122 -189 58 -453 155 -470 170 -5 5 -15 9 -23 9 -13 0 -308 143 -367 178
-16 9 -70 42 -120 71 -202 120 -451 301 -619 451 -78 69 -341 319 -351 333 -5
8 -32 41 -60 74 -237 281 -395 523 -570 872 -241 483 -368 932 -421 1491 -19
209 -14 664 10 850 34 265 68 450 106 575 10 33 28 94 40 135 76 260 150 447
285 715 126 250 247 440 449 705 182 238 487 536 749 733 103 78 381 264 417
280 8 4 38 20 65 37 50 31 218 114 330 165 128 58 301 120 510 184 463 140
1009 196 1485 151z"/>
</g>
</svg>
